<?xml version="1.0" standalone="no"?>
<!DOCTYPE svg PUBLIC "-//W3C//DTD SVG 1.1//EN" "http://www.w3.org/Graphics/SVG/1.1/DTD/svg11.dtd">
<svg xmlns="http://www.w3.org/2000/svg" xmlns:xlink="http://www.w3.org/1999/xlink" xmlns:svgjs="http://svgjs.dev/svgjs" version="1.1" width="128" height="128" viewBox="0 0 128 128"><g transform="matrix(0.5597826086956522,0,0,0.5597826086956522,28.061186471160298,12.760752631578946)"><svg xmlns="http://www.w3.org/2000/svg" xmlns:xlink="http://www.w3.org/1999/xlink" viewBox="0 0 66 95" data-background-color="#ffffff" preserveAspectRatio="xMidYMid meet" height="184" width="128"><g id="tight-bounds" transform="matrix(1,0,0,1,0.10383430629772761,-0.24049999999999727)"><svg viewBox="0 0 65.79233138740454 95.481" height="95.481" width="65.79233138740454"><g><svg viewBox="0 0 65.79233138740454 95.481" height="95.481" width="65.79233138740454"><g><svg viewBox="0 0 65.79233138740454 95.481" height="95.481" width="65.79233138740454"><g id="textblocktransform"><svg viewBox="0 0 65.79233138740454 95.481" height="95.481" width="65.79233138740454" id="textblock"><g><svg viewBox="0 0 65.79233138740454 95.481" height="95.481" width="65.79233138740454"><g><svg viewBox="0 0 65.79233138740454 95.481" height="95.481" width="65.79233138740454"><g><svg xmlns="http://www.w3.org/2000/svg" xmlns:xlink="http://www.w3.org/1999/xlink" version="1.1" x="0" y="0" viewBox="21.426000000000002 8.532000212172159 57.14732096453362 82.93494451329381" enable-background="new 0 0 100 100" xml:space="preserve" height="95.481" width="65.79233138740454" class="icon-icon-0" data-fill-palette-color="accent" id="icon-0"><g fill="#8b695e" data-fill-palette-color="accent"><path d="M67.931 33.953C67.663 50.606 63.21 66.789 55.02 82.246c3.896 3.721 7.973 6.508 12.437 7.888 3.288 0.98 6.782 1.488 10.469 1.291C80.108 71.666 76.773 52.432 67.931 33.953z" fill="#8b695e" data-fill-palette-color="accent"/><circle cx="63.882" cy="19.542" r="11" fill="#8b695e" data-fill-palette-color="accent"/><path d="M23.574 82.246c3.896 3.721 7.973 6.508 12.437 7.888 3.288 0.98 6.782 1.488 10.469 1.291 2.183-19.76-1.153-38.994-9.994-57.473C36.217 50.606 31.764 66.789 23.574 82.246z" fill="#8b695e" data-fill-palette-color="accent"/><circle cx="32.436" cy="19.542" r="11" fill="#8b695e" data-fill-palette-color="accent"/></g></svg></g></svg></g></svg></g></svg></g></svg></g></svg></g><defs/></svg><rect width="65.79233138740454" height="95.481" fill="none" stroke="none" visibility="hidden"/></g></svg></g></svg>